<svg xmlns="http://www.w3.org/2000/svg" width="1160" height="430" viewBox="0 0 1160 430" role="img" aria-labelledby="title desc">
  <title id="title">Replace the right tensor by the expanded basis and absorb coefficients left</title>
  <desc id="desc">Diagram showing the old two-site block A[j-1] A[j], the expanded basis E_j formed by stacking B_j and C_j, and the resulting tensors A_new[j-1] and E[j] connected by a larger bond.</desc>
  <defs>
    <marker id="arrow" viewBox="0 0 10 10" refX="9" refY="5" markerWidth="8" markerHeight="8" orient="auto-start-reverse">
      <path d="M 0 0 L 10 5 L 0 10 z" fill="#344054"/>
    </marker>
    <style>
      .title { font: 18px sans-serif; font-weight: 700; fill: #111827; }
      .label { font: 15px sans-serif; fill: #1f2937; }
      .small { font: 12px sans-serif; fill: #475467; }
      .math { font: 14px monospace; fill: #111827; }
      .box { fill: #ffffff; stroke: #667085; stroke-width: 1.5; rx: 8; }
      .tensor { fill: #dbeafe; stroke: #2563eb; stroke-width: 2; rx: 8; }
      .basis { fill: #dcfce7; stroke: #16a34a; stroke-width: 2; rx: 6; }
      .extra { fill: #fecaca; stroke: #dc2626; stroke-width: 1.5; }
      .old { stroke: #667085; stroke-width: 2.2; fill: none; }
      .new { stroke: #16a34a; stroke-width: 3; fill: none; }
      .arrow { stroke: #344054; stroke-width: 2; fill: none; marker-end: url(#arrow); }
    </style>
  </defs>

  <rect width="1160" height="430" fill="#ffffff"/>
  <text x="30" y="36" class="title">Step 5: write the expanded basis back onto the bond</text>

  <g transform="translate(55,94)">
    <text x="0" y="0" class="label">Old two-site block</text>
    <rect x="10" y="44" width="98" height="70" class="tensor"/>
    <text x="30" y="84" class="math">A[j-1]</text>
    <line x1="108" y1="79" x2="188" y2="79" class="old"/>
    <text x="118" y="61" class="small">chi_old</text>
    <rect x="188" y="44" width="86" height="70" class="tensor"/>
    <text x="214" y="84" class="math">A[j]</text>
    <text x="4" y="147" class="math">T = contract(A[j-1], A[j])</text>
    <path d="M 48 178 L 48 242 L 238 242 L 238 178 Z" class="box"/>
    <text x="110" y="217" class="math">T</text>
    <text x="52" y="266" class="small">contains the same physical state across the cut</text>
  </g>

  <g transform="translate(415,92)">
    <text x="0" y="0" class="label">Expanded row basis</text>
    <rect x="12" y="40" width="170" height="146" class="basis"/>
    <path d="M 12 40 L 182 40 L 182 106 L 12 106 Z" fill="#dcfce7" stroke="#16a34a" stroke-width="1.4"/>
    <path d="M 12 106 L 182 106 L 182 186 L 12 186 Z" class="extra"/>
    <text x="78" y="78" class="math">B_j</text>
    <text x="78" y="150" class="math">C_j</text>
    <text x="28" y="220" class="math">E_j = [B_j; C_j]</text>
    <text x="10" y="246" class="small">reshape E_j to (chi_new, d_j, chi_right)</text>
  </g>

  <path d="M 330 255 C 375 255, 390 220, 420 178" class="arrow"/>
  <text x="334" y="231" class="small">project T onto E_j</text>
  <path d="M 514 286 C 555 330, 615 342, 660 310" class="arrow"/>
  <text x="500" y="392" class="math">A_new[j-1] = &lt;E_j | T&gt;</text>

  <g transform="translate(660,91)">
    <text x="0" y="0" class="label">Expanded MPS tensors</text>
    <rect x="10" y="54" width="118" height="78" class="tensor"/>
    <text x="26" y="98" class="math">A_new[j-1]</text>
    <line x1="128" y1="93" x2="236" y2="93" class="new"/>
    <text x="144" y="74" class="small">chi_new = chi_old + chi_extra</text>
    <rect x="236" y="54" width="92" height="78" class="basis"/>
    <text x="270" y="98" class="math">E[j]</text>
    <text x="10" y="166" class="small">old coefficients live in B_j rows</text>
    <text x="10" y="184" class="small">new C_j rows start with zero target amplitude</text>
    <text x="10" y="216" class="math">A[j-1]--A[j] = A_new[j-1]--E[j]</text>
    <text x="10" y="240" class="small">up to the SVD/eigen tolerance used to choose bases</text>
  </g>
</svg>
